# xmcd
#
# Track frame offsets: 
#        150
#        12605
#        27903
#        51346
#        65199
#        87716
#        98764
#        115050
#        134953
#        147641
#        160975
#        180969
#        196042
#
# Disc length: 2867 seconds
#
# Revision: 0
# Processed by: cddbd v1.5.2PL0 Copyright (c) Steve Scherf et al.
# Submitted via: ExactAudioCopy v0.95b4
#
DISCID=c30b310d
DTITLE=The New Prohibition Band - Busted
DYEAR=2007
DGENRE=Country
TTITLE0=Remember What You Told Me
TTITLE1=Troubles
TTITLE2=River Song
TTITLE3=Sky Darlin´
TTITLE4=Jihad
TTITLE5=Valley Forge
TTITLE6=Shady Grove
TTITLE7=Angeline The Baker
TTITLE8=Cera´s Revenge
TTITLE9=Informant 559
TTITLE10=Leaving Lismoore
TTITLE11=California II
TTITLE12=Wayfaring Stranger
EXTD=
EXTT0=
EXTT1=
EXTT2=
EXTT3=
EXTT4=
EXTT5=
EXTT6=
EXTT7=
EXTT8=
EXTT9=
EXTT10=
EXTT11=
EXTT12=
PLAYORDER=
